<svg xmlns="http://www.w3.org/2000/svg" viewBox="0 0 37.01 50.51"><title>Ресурс 1</title><g id="Слой_2" data-name="Слой 2"><g id="logo.svg"><path d="M30.37,5.06a36.17,36.17,0,0,0-9.09,10.35c22.25-7.5,19.9,25.75-.78,21.46a29.12,29.12,0,0,1-4.15,13.64c.58-4.52,2.5-8.79-1-13.89-2-2.92-9.83-1.85-12.47-4.8-7.34-8.2.57-21.57,12-15.65-1.22-3.87-2.13-12,.26-16.16,1.77-.12,2.4.86,3.63,1.26.54.56-.41,1.09-.26,2,.72-.91,1.17-2.06,1.82-3a6.53,6.53,0,0,1,3.38,2.28c-.65,1.55-1.5,2.91-2.08,4.54,2-1,3.93-4.09,6.75-5.05,1.43.3,1.45,2,2.08,3" style="fill:#bc204b"/></g></g></svg>